#!OML:ASF E:\Style4\Style4.ASF
:FULLY-SPECIFIED
:DEGREES
874
root -0.927911 17.5583 -0.732301 1.57987 18.8846 1.65211
lowerback 12.7759 4.01222 0.0458526
upperback 9.26866 5.39272 0.471421
thorax 2.56248 2.74012 -0.0847893
lowerneck 9.00704 -2.51686 -6.00276
upperneck 6.68488 -3.79594 1.83231
head 0.740352 -1.98491 1.66016
rclavicle -3.69739e-014 6.36111e-015
rhumerus 19.1219 18.474 -79.8487
rradius 130.759
rwrist 15.797
rhand 36.877 -10.4482
rfingers 7.12502
rthumb 59.7598 -24.4782
lclavicle -3.69739e-014 6.36111e-015
lhumerus 24.0197 -18.6304 82.6045
lradius 133.482
lwrist -10.6156
lhand 24.8208 46.6374
lfingers 7.12502
lthumb 48.9966 68.3715
rfemur -16.5164 -16.7678 20.806
rtibia 39.2052
rfoot -23.9423 -23.6076
rtoes -5.14633
lfemur -21.2015 -7.7682 -17.2029
ltibia 36.6615
lfoot -16.0238 4.86586
ltoes -19.4923
875
root -0.927885 17.577 -0.731362 1.74034 19.0304 1.56489
lowerback 12.7493 3.99734 0.112057
upperback 9.13609 5.3775 0.493987
thorax 2.43872 2.73364 -0.101224
lowerneck 8.88484 -2.49616 -6.18305
upperneck 6.83656 -3.77867 1.96114
head 0.814576 -1.98183 1.73053
rclavicle 1.39149e-014 6.36111e-015
rhumerus 19.7879 18.3298 -79.6533
rradius 130.321
rwrist 15.9337
rhand 36.7888 -10.5912
rfingers 7.12502
rthumb 59.6842 -24.6988
lclavicle 1.39149e-014 6.36111e-015
lhumerus 24.6357 -18.3194 82.5769
lradius 132.986
lwrist -10.4115
lhand 24.9586 46.8034
lfingers 7.12502
lthumb 49.1232 68.4746
rfemur -16.5357 -16.732 20.9865
rtibia 38.895
rfoot -24.1627 -23.6361
rtoes -4.07901
lfemur -21.2508 -7.79854 -17.0849
ltibia 36.304
lfoot -15.8363 4.89899
ltoes -20.0014
876
root -0.927162 17.5939 -0.731695 1.88932 19.1822 1.53359
lowerback 12.6456 3.93979 -0.035109
upperback 9.09478 5.28691 0.603775
thorax 2.42537 2.67776 0.107936
lowerneck 8.66039 -2.44116 -6.36817
upperneck 6.97244 -3.70313 1.86856
head 0.893852 -1.94975 1.72731
rclavicle 1.16885e-013 -4.45278e-014
rhumerus 20.5958 18.3608 -79.3302
rradius 129.815
rwrist 16.0412
rhand 36.6854 -10.8281
rfingers 7.12502
rthumb 59.5954 -25.0262
lclavicle 1.16885e-013 -4.45278e-014
lhumerus 25.2395 -17.7926 82.5932
lradius 132.395
lwrist -10.3807
lhand 24.9533 46.6922
lfingers 7.12502
lthumb 49.1183 68.3658
rfemur -16.5747 -16.743 21.0863
rtibia 38.6523
rfoot -24.2829 -23.6492
rtoes -3.27551
lfemur -21.2859 -7.85654 -17.0345
ltibia 35.9844
lfoot -15.6016 4.84459
ltoes -19.9414
877
root -0.923515 17.6053 -0.732556 2.07436 19.3454 1.64635
lowerback 12.4812 3.90841 -0.266467
upperback 9.10006 5.2247 0.68508
thorax 2.49052 2.63351 0.337981
lowerneck 8.47232 -2.41875 -6.55863
upperneck 7.02269 -3.67409 1.81153
head 0.942855 -1.94017 1.73876
rclavicle -4.17448e-014 1.98785e-014
rhumerus 21.4563 18.2783 -78.9259
rradius 129.196
rwrist 16.2018
rhand 36.6538 -10.7809
rfingers 7.12502
rthumb 59.5683 -25.0066
lclavicle -4.17448e-014 1.98785e-014
lhumerus 25.8208 -17.5897 82.5173
lradius 131.764
lwrist -11.0537
lhand 24.5017 46.5467
lfingers 7.12502
lthumb 48.7032 68.4246
rfemur -16.6274 -16.7672 20.996
rtibia 38.475
rfoot -24.1812 -23.73
rtoes -3.3851
lfemur -21.3325 -7.92469 -17.1463
ltibia 35.7129
lfoot -15.4128 4.70288
ltoes -19.5814
878
root -0.920486 17.6137 -0.732155 2.19018 19.4961 1.67621
lowerback 12.4886 3.9322 -0.1764
upperback 9.02374 5.26396 0.65395
thorax 2.41594 2.65805 0.247887
lowerneck 8.44361 -2.45628 -6.70796
upperneck 7.07816 -3.73837 1.99567
head 0.975639 -1.97584 1.82572
rclavicle -2.22639e-014 -7.95139e-016
rhumerus 22.0175 17.9952 -78.743
rradius 128.657
rwrist 16.5091
rhand 36.6747 -10.7181
rfingers 7.12502
rthumb 59.5862 -24.9256
lclavicle -2.22639e-014 -7.95139e-016
lhumerus 26.3085 -17.7927 82.3439
lradius 131.18
lwrist -12.007
lhand 24.0142 46.537
lfingers 7.12502
lthumb 48.2545 68.6302
rfemur -16.648 -16.7771 20.9886
rtibia 38.3497
rfoot -24.2105 -23.7547
rtoes -3.28052
lfemur -21.3692 -7.97 -17.1757
ltibia 35.5104
lfoot -15.2172 4.536
ltoes -19.1124
879
root -0.918018 17.619 -0.731775 2.27468 19.6813 1.67519
lowerback 12.6459 3.97773 0.111175
upperback 8.88752 5.3503 0.487084
thorax 2.22915 2.71853 -0.110018
lowerneck 8.49331 -2.55493 -6.50248
upperneck 7.082 -3.86234 2.17559
head 0.973529 -2.0323 1.85046
rclavicle -3.1408e-014 2.14687e-014
rhumerus 22.3164 17.5671 -78.8258
rradius 128.234
rwrist 16.9219
rhand 36.8897 -10.9927
rfingers 7.12502
rthumb 59.7707 -25.0114
lclavicle -3.1408e-014 2.14687e-014
lhumerus 26.7848 -17.91 82.1298
lradius 130.677
lwrist -12.1413
lhand 24.3392 46.5616
lfingers 7.12502
lthumb 48.5538 68.5118
rfemur -16.6845 -16.8285 21.0098
rtibia 38.2905
rfoot -24.1086 -23.9186
rtoes -3.6191
lfemur -21.4209 -8.03803 -17.1719
ltibia 35.3818
lfoot -15.0819 4.37827
ltoes -18.6204
880
root -0.913377 17.6216 -0.734652 2.38669 19.8498 1.66922
lowerback 12.7658 4.00036 0.359055
upperback 8.74772 5.40324 0.333436
thorax 2.05507 2.75897 -0.426579
lowerneck 8.47684 -2.62627 -6.25594
upperneck 7.15537 -3.93998 2.28093
head 0.999816 -2.0654 1.84123
rclavicle -2.26615e-014 2.8625e-014
rhumerus 22.5625 17.2338 -78.9108
rradius 127.813
rwrist 17.2837
rhand 36.9329 -11.1898
rfingers 7.12502
rthumb 59.8078 -25.1703
lclavicle -2.26615e-014 2.8625e-014
lhumerus 27.1988 -18.0153 81.8921
lradius 130.183
lwrist -12.1496
lhand 24.5097 46.6363
lfingers 7.12502
lthumb 48.7107 68.5106
rfemur -16.8057 -16.9267 21.0345
rtibia 38.2906
rfoot -24.0018 -24.0616
rtoes -3.95066
lfemur -21.5576 -8.12604 -17.1693
ltibia 35.3362
lfoot -15.0125 4.33869
ltoes -18.598
881
root -0.906584 17.6207 -0.740906 2.54927 19.9921 1.77746
lowerback 12.888 3.97172 0.4091
upperback 8.61057 5.36918 0.228216
thorax 1.8589 2.74528 -0.575391
lowerneck 8.4784 -2.61351 -6.31109
upperneck 7.21727 -3.9326 2.43959
head 1.02393 -2.06334 1.90277
rclavicle 6.20208e-014 -3.57812e-014
rhumerus 22.8028 17.1266 -78.9238
rradius 127.425
rwrist 17.5326
rhand 36.794 -11.3079
rfingers 7.12502
rthumb 59.6886 -25.411
lclavicle 6.20208e-014 -3.57812e-014
lhumerus 27.4517 -18.0727 81.6529
lradius 129.657
lwrist -12.6284
lhand 24.2153 46.5681
lfingers 7.12502
lthumb 48.4397 68.5731
rfemur -16.9992 -17.0802 20.9253
rtibia 38.3785
rfoot -24.0283 -23.9871
rtoes -3.90512
lfemur -21.7439 -8.2037 -17.2996
ltibia 35.359
lfoot -14.9971 4.37999
ltoes -18.9411
882
root -0.900948 17.6184 -0.745383 2.67104 20.0869 1.85959
lowerback 12.9579 3.99438 0.422533
upperback 8.56457 5.40008 0.164977
thorax 1.78095 2.76254 -0.659037
lowerneck 8.37583 -2.65268 -6.25885
upperneck 7.25697 -3.9759 2.48013
head 1.05546 -2.0835 1.90529
rclavicle -4.13472e-014 1.27222e-014
rhumerus 23.1199 16.9365 -78.8047
rradius 127.045
rwrist 17.8165
rhand 36.9344 -11.1642
rfingers 7.12502
rthumb 59.809 -25.1435
lclavicle -4.13472e-014 1.27222e-014
lhumerus 27.7147 -18.1065 81.5441
lradius 129.092
lwrist -13.086
lhand 24.1268 46.266
lfingers 7.12502
lthumb 48.3583 68.3099
rfemur -17.1869 -17.1925 20.8404
rtibia 38.532
rfoot -24.0773 -23.9322
rtoes -3.86959
lfemur -21.9237 -8.27997 -17.3967
ltibia 35.4504
lfoot -15.0222 4.42978
ltoes -19.2599
883
root -0.896639 17.6118 -0.749838 2.7598 20.1521 1.91896
lowerback 12.961 4.07888 0.424357
upperback 8.60404 5.51251 0.126111
thorax 1.82739 2.82081 -0.710443
lowerneck 8.27514 -2.74329 -6.04842
upperneck 7.17572 -4.07406 2.44783
head 1.04487 -2.12617 1.85702
rclavicle -7.95139e-015 1.03368e-014
rhumerus 23.4413 16.6569 -78.6397
rradius 126.638
rwrist 17.9697
rhand 36.9937 -11.1242
rfingers 7.12502
rthumb 59.8598 -25.0508
lclavicle -7.95139e-015 1.03368e-014
lhumerus 27.9559 -18.2597 81.5478
lradius 128.535
lwrist -13.405
lhand 24.063 45.9535
lfingers 7.12502
lthumb 48.2995 68.0253
rfemur -17.3839 -17.2335 20.7849
rtibia 38.7572
rfoot -24.2685 -23.8709
rtoes -3.58678
lfemur -22.1105 -8.33839 -17.4651
ltibia 35.5938
lfoot -15.0303 4.41617
ltoes -19.2234
884
root -0.890947 17.6025 -0.754983 2.77289 20.2587 1.92069
lowerback 13.0112 4.07608 0.454316
upperback 8.65439 5.51303 0.136127
thorax 1.85604 2.82297 -0.717967
lowerneck 8.27476 -2.7472 -6.02499
upperneck 6.98868 -4.08053 2.48684
head 0.985742 -2.12742 1.86707
rclavicle 1.34378e-013 -6.12257e-014
rhumerus 23.7687 16.6023 -78.572
rradius 126.174
rwrist 18.1699
rhand 36.7551 -11.2874
rfingers 7.12502
rthumb 59.6553 -25.4246
lclavicle 1.34378e-013 -6.12257e-014
lhumerus 28.1142 -18.2552 81.4916
lradius 128.075
lwrist -13.6305
lhand 24.0666 45.7555
lfingers 7.12502
lthumb 48.3028 67.8258
rfemur -17.537 -17.3179 20.7637
rtibia 39.0355
rfoot -24.4894 -23.7851
rtoes -3.30903
lfemur -22.2657 -8.40081 -17.4848
ltibia 35.7774
lfoot -15.0325 4.34204
ltoes -19.1317
